<svg width="172" height="122" viewBox="0 0 172 122" fill="none" xmlns="http://www.w3.org/2000/svg">
<ellipse cx="110" cy="49.0001" rx="60" ry="47" transform="rotate(1.54932 110 49.0001)" fill="#EBC76A"/>
<path d="M119.992 111.993L97.3309 60.109L161.402 73.3841L119.992 111.993Z" fill="#EBC76A"/>
<ellipse cx="62.3613" cy="47.0037" rx="62.3613" ry="47.0037" transform="matrix(-0.999088 -0.0427053 -0.0461325 0.998935 128.946 5.32642)" fill="#8C535A"/>
<path d="M59.404 116.072L86.7476 65.9373L19.3352 74.6052L59.404 116.072Z" fill="#8C535A"/>
<path fill-rule="evenodd" clip-rule="evenodd" d="M89.7098 93.038C66.1106 86.1504 49.4616 68.099 50.022 47.3777C50.5312 28.5521 65.1052 12.6949 85.7177 5.75024C110.46 12.9159 127.742 31.3919 126.777 52.28C125.919 70.8658 110.848 86.3169 89.7098 93.038Z" fill="#78823F"/>
</svg>
