<?xml version="1.0" encoding="UTF-8" standalone="no"?>
<!-- Created with Inkscape (http://www.inkscape.org/) -->

<svg
   version="1.1"
   id="svg2"
   width="2666.6667"
   height="2666.6667"
   viewBox="0 0 2666.6667 2666.6667"
   sodipodi:docname="medical-18.eps"
   xmlns:inkscape="http://www.inkscape.org/namespaces/inkscape"
   xmlns:sodipodi="http://sodipodi.sourceforge.net/DTD/sodipodi-0.dtd"
   xmlns="http://www.w3.org/2000/svg"
   xmlns:svg="http://www.w3.org/2000/svg">
  <defs
     id="defs6" />
  <sodipodi:namedview
     id="namedview4"
     pagecolor="#ffffff"
     bordercolor="#000000"
     borderopacity="0.25"
     inkscape:showpageshadow="2"
     inkscape:pageopacity="0.0"
     inkscape:pagecheckerboard="0"
     inkscape:deskcolor="#d1d1d1" />
  <g
     id="g8"
     inkscape:groupmode="layer"
     inkscape:label="ink_ext_XXXXXX"
     transform="matrix(1.3333333,0,0,-1.3333333,0,2666.6667)">
    <g
       id="g10"
       transform="scale(0.1)">
      <path
         d="M 20000,0 H 0 V 20000 H 20000 V 0"
         style="fill:#f5f6f5;fill-opacity:1;fill-rule:nonzero;stroke:none"
         id="path12" />
      <path
         d="m 13047.3,8985.9 c -204.6,0 -370.5,-165.9 -370.5,-370.6 0,-204.6 165.9,-370.6 370.5,-370.6 204.7,0 370.6,166 370.6,370.6 0,204.7 -165.9,370.6 -370.6,370.6"
         style="fill:#2e2d2d;fill-opacity:1;fill-rule:nonzero;stroke:none"
         id="path14" />
      <path
         d="m 13039.3,8021.2 c -340.9,0 -618.3,277.4 -618.3,618.3 0,340.9 277.4,618.3 618.3,618.3 340.9,0 618.3,-277.4 618.3,-618.3 0,-340.9 -277.4,-618.3 -618.3,-618.3 z m 0,1579 c -529.7,0 -960.7,-431 -960.7,-960.7 0,-443.8 302.6,-818.2 712.2,-928 -120.9,-747.7 -474.4,-1379.4 -1077.5,-1927 -106.9,-97.1 -218.6,-174.7 -332,-230.7 -271.6,-134.1 -553.1,-167.9 -860.8,-103.3 -333,69.9 -644.7,255.1 -877.64,521.4 -556.68,636.4 -860.67,1403.3 -903.54,2279.3 187.03,69.5 320.31,249.6 320.31,460.8 v 61.1 c 489.21,111.7 912.03,379.5 1238.47,788.8 303.1,380 415.6,745.5 427.5,786 h -0.1 c 36.5,124.4 -1.2,256 -90.9,342.5 646.6,1496.7 574.6,2926.5 553.4,3199.3 -2,25.2 -3.3,50.4 -4.7,75.7 -0.8,13.3 -1.5,26.6 -2.3,40 -18.2,297.7 -169.5,527.2 -426.1,646.3 -111.1,51.5 -232.9,77.7 -362.1,77.7 h -182.6 c -10.5,33.2 -33.6,61.7 -65.7,77.8 -58.8,29.6 -129.2,52.1 -197.58,69.1 -130.42,32.4 -264.64,46.9 -399.05,46.9 H 9427.2 c -2.09,0 -4.17,0 -6.22,-0.1 -121.89,-1.7 -219.35,-101.9 -219.35,-223.8 v -98.4 -98.3 c 0,-121.9 97.46,-222.2 219.35,-223.8 2.05,-0.1 4.13,-0.1 6.22,-0.1 h 120.54 c 132.78,0 265.39,14.1 394.35,45.7 66.31,16.2 134.81,37.7 193.11,65.7 35,16.8 60.8,46.9 73.1,82.4 h 184.5 c 91.6,0 177.1,-18.1 254,-53.7 171.9,-79.8 265.3,-224.2 277.8,-429.1 0.8,-12.8 1.5,-25.6 2.2,-38.5 1.5,-27.2 3.1,-54.3 5.2,-81.5 20.3,-262.4 89.6,-1640.1 -535.7,-3083.4 -135.6,-0.3 -263.8,-81.4 -317.3,-215.1 -380.31,-950.8 -1084.38,-1130.5 -1374.89,-1163.6 -29.37,-3 -59.32,-5.3 -89.89,-6.8 -8.87,-0.3 -16.31,-0.4 -22.38,-0.5 -5.83,0.1 -12.88,0.2 -21.15,0.5 -29.37,1.4 -58.15,3.6 -86.45,6.4 -288.2,32.1 -996.61,209.3 -1378.5,1164 -53.6,134 -182.43,215.3 -318.46,215.1 -631.77,1543.9 -522.59,3067.8 -521.38,3083.4 2.12,27.2 3.62,54.3 5.13,81.5 0.71,12.9 1.41,25.7 2.2,38.5 12.5,205 105.97,349.3 277.81,429 76.97,35.7 162.43,53.8 254.03,53.8 h 184.44 c 12.38,-35.5 38.12,-65.6 73.19,-82.4 58.23,-28 126.74,-49.5 193.07,-65.7 128.96,-31.6 261.57,-45.7 394.34,-45.7 h 120.55 c 2.09,0 4.17,0 6.22,0.1 121.89,1.6 219.34,101.9 219.34,223.8 v 98.3 98.4 c 0,121.9 -97.45,222.1 -219.34,223.8 -2.05,0.1 -4.13,0.1 -6.22,0.1 h -120.67 c -134.38,0 -268.64,-14.5 -399.06,-46.9 -68.36,-17 -138.74,-39.5 -197.53,-69.1 -32.09,-16.1 -55.23,-44.6 -65.77,-77.8 h -182.56 c -129.19,0 -251.04,-26.2 -362.11,-77.7 -256.59,-119 -407.91,-348.6 -426.08,-646.4 -0.8,-13.3 -1.55,-26.6 -2.28,-39.9 -1.41,-25.3 -2.78,-50.6 -4.75,-75.8 -4.01,-51.7 -36.77,-524.8 44.89,-1226.2 82.76,-710.9 249.11,-1374 494.63,-1973.7 -89.07,-86.6 -126.57,-217.8 -90.1,-341.8 h -0.09 c 11.83,-40.5 124.36,-406 427.49,-786 315.78,-395.9 721.77,-659.6 1190.11,-777.5 V 8712 c 0,-211.3 133.34,-391.4 320.46,-460.8 -0.2,-4.9 -0.28,-9.8 -0.04,-14.7 46.38,-955.9 378.78,-1793.6 987.93,-2490.1 281.54,-321.8 659.77,-545.9 1065.07,-631 122.5,-25.7 243.4,-38.6 362.3,-38.6 250,0 491.2,56.8 720.4,170 141.9,70 280.1,165.7 410.6,284.2 660.6,599.8 1060.1,1323.3 1189.4,2152.4 485.9,47.2 867.1,457.9 867.1,956.1 0,529.7 -431,960.7 -960.7,960.7"
         style="fill:#2e2d2d;fill-opacity:1;fill-rule:nonzero;stroke:none"
         id="path16" />
    </g>
  </g>
</svg>
